<?xml version="1.0" encoding="UTF-8"?>
<!-- Generator: visioncortex VTracer -->
<svg id="svg" version="1.1" xmlns="http://www.w3.org/2000/svg" style="display: block;" viewBox="0 0 400 400"><path d="M0 0 C0.886875 0.598125 1.77375 1.19625 2.6875 1.8125 C13.4359835 11.9799844 19.87897512 25.59988633 20.375 40.4375 C20.10881746 49.18349784 17.97586741 57.24705855 14 65 C14.40800932 68.28182859 15.54670496 69.91641159 17.86743164 72.20800781 C18.46797867 72.80832825 19.0685257 73.40864868 19.68727112 74.02716064 C20.33832321 74.66272888 20.98937531 75.29829712 21.66015625 75.953125 C22.32462265 76.61334656 22.98908905 77.27356812 23.6736908 77.95379639 C25.79635563 80.0596764 27.92921605 82.15488328 30.0625 84.25 C31.50393934 85.67639232 32.94470309 87.1034677 34.38476562 88.53125 C37.91538832 92.02880594 41.45519053 95.51682565 45 99 C42.26774803 101.75041668 39.57472864 104.43343338 36.5625 106.875 C32.95131057 109.91600162 29.96084277 113.33419466 27 117 C24.14220983 115.70280076 22.08991464 114.3363174 19.88378906 112.11083984 C19.30348938 111.5303891 18.7231897 110.94993835 18.12530518 110.35189819 C17.51161072 109.72788116 16.89791626 109.10386414 16.265625 108.4609375 C15.62759949 107.82008209 14.98957397 107.17922668 14.33221436 106.51895142 C12.30005931 104.47562179 10.27497782 102.42544018 8.25 100.375 C6.8715547 98.9865214 5.49265364 97.5984951 4.11328125 96.2109375 C0.73688106 92.81251303 -2.63319288 89.40792746 -6 86 C-6.66386719 86.27714844 -7.32773438 86.55429688 -8.01171875 86.83984375 C-9.33623047 87.38318359 -9.33623047 87.38318359 -10.6875 87.9375 C-11.99267578 88.47697266 -11.99267578 88.47697266 -13.32421875 89.02734375 C-25.51931227 93.46030475 -41.35349384 92.24715585 -53 87 C-65.48430988 80.7077743 -73.93067064 70.99742807 -79 58 C-82.93987466 44.93904563 -82.5953531 30.27580533 -76.5234375 18.01953125 C-69.52946149 5.16530594 -59.44169246 -3.41964903 -45.59375 -8.16796875 C-29.40177026 -12.27379219 -13.71412624 -9.75761418 0 0 Z " transform="translate(103,32)" style="fill: #FC7E7E;"/><path d="M0 0 C4.09993789 1.60479979 6.72324108 4.56986158 9.68359375 7.69921875 C10.78652061 8.83715949 11.89005471 9.97451193 12.99414062 11.11132812 C14.7233839 12.90263796 16.44754368 14.6980842 18.16137695 16.50415039 C19.82205982 18.24935121 21.50095257 19.97521624 23.18359375 21.69921875 C23.69208359 22.24495041 24.20057343 22.79068207 24.72447205 23.35295105 C26.33595403 25.05571489 26.33595403 25.05571489 29 27 C31.68765788 27.03509642 31.68765788 27.03509642 34 26 C34.88558594 25.690625 35.77117187 25.38125 36.68359375 25.0625 C37.59238281 24.711875 38.50117188 24.36125 39.4375 24 C43.32778776 22.5702804 46.84562383 21.34619801 51 21 C52.12728516 20.90525391 52.12728516 20.90525391 53.27734375 20.80859375 C65.54876486 20.2499828 77.04575151 23.9175425 87 31 C87.886875 31.598125 88.77375 32.19625 89.6875 32.8125 C100.4359835 42.9799844 106.87897512 56.59988633 107.375 71.4375 C106.86873531 86.0980816 101.50189343 98.09379686 91.49609375 108.70703125 C78.92490587 120.25521166 65.81144124 122.81816682 49.3515625 122.17480469 C37.15183408 121.26793119 26.52837538 114.98756738 18.1875 106.3125 C9.55285546 96.14590239 5.59974279 84.81783451 5.6875 71.625 C5.69023926 70.79081543 5.69297852 69.95663086 5.69580078 69.09716797 C5.79936985 62.99373576 6.60173562 57.65462336 9 52 C9.66 50.35 10.32 48.7 11 47 C1.76 37.76 -7.48 28.52 -17 19 C-13.3510555 14.74289808 -9.9125298 10.9125298 -6 7 C-3.96575571 4.6951674 -1.97531204 2.35544082 0 0 Z " transform="translate(272,257)" style="fill: #FC7E7E;"/><path d="M0 0 C3.07469523 1.70251719 5.40613254 3.81226508 7 7 C7.203125 8.98828125 7.203125 8.98828125 7.25 11.3125 C7.27578125 12.07175781 7.3015625 12.83101562 7.328125 13.61328125 C7 16 7 16 5.37866211 18.25610352 C3.69708232 20.94545006 3.69708232 20.94545006 4.45043945 23.99853516 C5.70689264 27.55395739 6.97869989 31.09771672 8.3125 34.625 C8.73595703 35.86507812 9.15941406 37.10515625 9.59570312 38.3828125 C11.69334754 44.69203154 11.69334754 44.69203154 16.05419922 49.40625 C18.44047168 50.29867544 18.44047168 50.29867544 22 51 C24.96346663 54.25981329 25.90073307 56.19168354 26.4375 60.5625 C26 64 26 64 24.4375 66.5625 C22.49678071 69.85328488 23.1720115 71.3128163 24 75 C24.71420265 77.22932652 25.47965605 79.44263692 26.28515625 81.640625 C26.95708008 83.49300781 26.95708008 83.49300781 27.64257812 85.3828125 C28.1154751 86.67202558 28.58878707 87.96108651 29.0625 89.25 C29.99477404 91.79549697 30.92220385 94.34262617 31.84765625 96.890625 C32.26023682 98.01500977 32.67281738 99.13939453 33.09790039 100.29785156 C34 103 34 103 34 105 C34.886875 105.061875 35.77375 105.12375 36.6875 105.1875 C40.77444675 106.18995864 42.30264829 107.84024514 45 111 C46.5547669 114.10953379 46.28644437 116.56266761 46 120 C44.38679279 123.05357079 42.96939098 125.23833566 40.25 127.375 C36.77703607 128.3397122 33.52868031 128.71719828 30 128 C29.08710205 127.12263184 28.1742041 126.24526367 27.23364258 125.34130859 C23.38331686 122.47682 20.46661463 122.91230062 15.8112793 123.51806641 C12.88808718 123.99355001 9.98251848 124.54307429 7.07421875 125.1015625 C5.52004721 125.37789811 3.96541486 125.65165333 2.41035461 125.92294312 C-1.66943325 126.64221793 -5.74164082 127.39798096 -9.81341553 128.16113281 C-13.96579245 128.93187563 -18.12485196 129.66466136 -22.28320312 130.40234375 C-28.3448716 131.48540519 -34.40483088 132.57723394 -40.45825195 133.70556641 C-41.67623978 133.93160553 -42.8942276 134.15764465 -44.14912415 134.39053345 C-46.92985654 134.8606182 -46.92985654 134.8606182 -49 136 C-49.433125 136.94875 -49.86625 137.8975 -50.3125 138.875 C-52.23875085 142.44213121 -53.2632615 143.5053046 -57 145 C-60.96670012 145.57931523 -64.08012705 145.36794918 -67.8125 143.875 C-70.64207349 141.4496513 -71.77932625 139.52639082 -73 136 C-73 132.5 -73 132.5 -72 129 C-71.13375 128.175 -70.2675 127.35 -69.375 126.5 C-67.3059494 124.22748474 -67.00557041 123.19109217 -66.91430664 120.06030273 C-67.01606201 118.88411377 -67.11781738 117.7079248 -67.22265625 116.49609375 C-67.27642929 115.84398422 -67.33020233 115.19187469 -67.38560486 114.52000427 C-67.57221545 112.34456832 -67.78264278 110.17257247 -68 108 C-68.07557129 107.23979553 -68.15114258 106.47959106 -68.22900391 105.6963501 C-68.89217262 99.13121813 -69.61630065 92.57291362 -70.34594727 86.01489258 C-70.6209781 83.53244656 -70.89078637 81.04947196 -71.16015625 78.56640625 C-71.28669334 77.45211998 -71.28669334 77.45211998 -71.41578674 76.31532288 C-71.93410108 71.51513381 -72.07315387 66.82849536 -72 62 C-72.7425 61.7525 -73.485 61.505 -74.25 61.25 C-77.85099634 59.61318348 -80.22204346 57.55591308 -82 54 C-82.54802111 48.30058046 -81.60961802 45.43467357 -78 41 C-74.8772663 38.91817754 -74.17155089 38.74592652 -70.625 38.8125 C-69.87476563 38.81894531 -69.12453125 38.82539063 -68.3515625 38.83203125 C-66 39 -66 39 -63.73339844 39.71704102 C-59.87912933 40.11603154 -58.1690602 38.73910186 -54.9140625 36.6953125 C-54.33948303 36.34040237 -53.76490356 35.98549225 -53.1729126 35.61982727 C-51.31495856 34.468152 -49.47034276 33.29675291 -47.625 32.125 C-46.35789214 31.33577991 -45.08982303 30.54810105 -43.82080078 29.76196289 C-41.33258877 28.21838662 -38.8487792 26.66815067 -36.36914062 25.11083984 C-32.22665054 22.51547975 -28.06075727 19.96229371 -23.875 17.4375 C-22.75867188 16.75558594 -21.64234375 16.07367188 -20.4921875 15.37109375 C-18 14 -18 14 -16 14 C-16.103125 12.96875 -16.20625 11.9375 -16.3125 10.875 C-15.90324992 5.80029899 -14.53727317 4.53727317 -11 1 C-7.51556578 -0.74221711 -3.80112955 -0.58675154 0 0 Z M-21.90625 23.91015625 C-22.92616028 24.51784096 -22.92616028 24.51784096 -23.9666748 25.13780212 C-26.14816867 26.43992844 -28.3239793 27.75125246 -30.5 29.0625 C-31.93455748 29.91918664 -33.36944998 30.77531252 -34.8046875 31.63085938 C-38.25235161 33.68930891 -41.68523853 35.77102054 -45.11376953 37.86114502 C-46.88125372 38.92830421 -48.66474541 39.96882338 -50.44921875 41.00732422 C-51.44566406 41.60174316 -52.44210938 42.19616211 -53.46875 42.80859375 C-54.32919922 43.31060303 -55.18964844 43.8126123 -56.07617188 44.32983398 C-58.51950591 46.4510076 -58.67810885 47.83629653 -59 51 C-59.33333333 52.66666667 -59.66666667 54.33333333 -60 56 C-58.989375 56.845625 -57.97875 57.69125 -56.9375 58.5625 C-53.89964556 61.17179998 -51.10543145 63.91650138 -48.375 66.83984375 C-47.72797119 67.52167725 -47.08094238 68.20351074 -46.41430664 68.90600586 C-45.10725341 70.29054279 -43.81689199 71.69104978 -42.54467773 73.10766602 C-41.62344116 74.07530884 -41.62344116 74.07530884 -40.68359375 75.0625 C-40.14275146 75.65160156 -39.60190918 76.24070313 -39.04467773 76.84765625 C-35.9130051 78.61261086 -33.40543949 77.71195629 -30 77 C-28.07884654 71.38089488 -26.15829873 65.76158323 -24.23828125 60.14208984 C-23.58674986 58.23545919 -22.93506081 56.3288824 -22.28320312 54.42236328 C-20.73317261 49.88876176 -19.18520377 45.35448634 -17.64257812 40.81835938 C-16.65686694 37.92009114 -15.66293893 35.02512782 -14.65429688 32.13476562 C-14.10612305 30.54438477 -14.10612305 30.54438477 -13.546875 28.921875 C-13.24104492 28.0462793 -12.93521484 27.17068359 -12.62011719 26.26855469 C-11.82421364 23.74889036 -11.82421364 23.74889036 -12 20 C-16.03275436 20 -18.55708101 21.88179178 -21.90625 23.91015625 Z M-5 23 C-7.83132908 29.8593876 -10.34901398 36.77374278 -12.671875 43.8203125 C-12.99915588 44.80498505 -13.32643677 45.78965759 -13.66363525 46.8041687 C-14.69527673 49.91017443 -15.72270892 53.01755304 -16.75 56.125 C-17.45414772 58.24748853 -18.15857226 60.36988525 -18.86328125 62.4921875 C-20.57871939 67.66040223 -22.29071578 72.82974693 -24 78 C-23.34 78.66 -22.68 79.32 -22 80 C-18.39549683 77.70886229 -14.7914555 75.41699908 -11.1875 73.125 C-9.65125977 72.14853516 -9.65125977 72.14853516 -8.08398438 71.15234375 C-7.10107422 70.52714844 -6.11816406 69.90195313 -5.10546875 69.2578125 C-4.19949951 68.6817627 -3.29353027 68.10571289 -2.36010742 67.51220703 C1.57792772 65.36435334 1.57792772 65.36435334 3.66015625 61.6875 C3.79292969 60.800625 3.92570312 59.91375 4.0625 59 C4.7941681 54.2058319 4.7941681 54.2058319 7 52 C6.6710365 46.01092929 4.14690234 40.27853103 2.125 34.6875 C1.77308594 33.67365234 1.42117187 32.65980469 1.05859375 31.61523438 C0.71183594 30.65294922 0.36507812 29.69066406 0.0078125 28.69921875 C-0.30526855 27.82096436 -0.61834961 26.94270996 -0.94091797 26.0378418 C-1.87991945 23.65338214 -1.87991945 23.65338214 -5 23 Z M-65 60 C-66.35050169 62.70100337 -65.89642542 64.41046916 -65.57861328 67.41186523 C-65.46164093 68.54321396 -65.34466858 69.67456268 -65.22415161 70.8401947 C-65.0908847 72.06726639 -64.9576178 73.29433807 -64.8203125 74.55859375 C-64.68809296 75.81382339 -64.55587341 77.06905304 -64.41964722 78.36231995 C-64.13823797 81.0215991 -63.85454313 83.68051198 -63.56689453 86.33911133 C-63.19845071 89.74594652 -62.83824354 93.15358837 -62.48085213 96.56159878 C-62.13934158 99.81098874 -61.79221461 103.05977563 -61.4453125 106.30859375 C-61.31609406 107.5336412 -61.18687561 108.75868866 -61.05374146 110.02085876 C-60.93046478 111.15535965 -60.80718811 112.28986053 -60.68017578 113.45874023 C-60.57279083 114.45864487 -60.46540588 115.4585495 -60.35476685 116.48875427 C-60.05994404 119.12085899 -60.05994404 119.12085899 -59 122 C-53.2175984 119.71035099 -50.56421808 114.1961786 -47.1875 109.25 C-46.48173828 108.26 -45.77597656 107.27 -45.04882812 106.25 C-44.38689453 105.28578125 -43.72496094 104.3215625 -43.04296875 103.328125 C-42.43477295 102.4505957 -41.82657715 101.57306641 -41.19995117 100.66894531 C-39.69720081 97.32651052 -40.16508044 95.50702726 -41 92 C-40.78712289 90.45599974 -40.55843556 88.91408063 -40.3125 87.375 C-40.23696879 82.82252804 -41.7624746 80.62662817 -44.88549805 77.37133789 C-47.5189267 74.82870339 -50.23516826 72.39817575 -53 70 C-53.804375 69.27039063 -54.60875 68.54078125 -55.4375 67.7890625 C-58.51580495 65.02558419 -61.67289117 62.45885017 -65 60 Z M-5.43554688 75.25952148 C-7.13230574 76.44259396 -8.8600173 77.56191901 -10.6015625 78.67773438 C-15.01323579 81.57649387 -15.01323579 81.57649387 -19 85 C-19.42865367 87.67486602 -19.42865367 87.67486602 -19 90 C-4.1160134 96.64450562 10.8130613 103.07794234 26 109 C26.66 108.01 27.32 107.02 28 106 C27.44078762 103.41698046 26.78551647 101.11069569 25.921875 98.62890625 C25.6764093 97.9101683 25.4309436 97.19143036 25.17803955 96.45091248 C24.65077575 94.92935825 24.11561414 93.4105216 23.57324219 91.89428711 C22.75821846 89.58577833 22.0000816 87.26332918 21.2421875 84.93554688 C18.25187295 75.80796427 18.25187295 75.80796427 11.3984375 69.5 C4.80091313 67.83503519 -0.18605918 71.58871744 -5.43554688 75.25952148 Z M-24.6875 97.375 C-28 99 -28 99 -31.21875 99.421875 C-37.06397396 101.03855694 -39.74633349 107.07286458 -42.8125 111.875 C-43.47958984 112.88175781 -44.14667969 113.88851562 -44.83398438 114.92578125 C-48.69967281 120.80014196 -48.69967281 120.80014196 -52 127 C-51.67 127.33 -51.34 127.66 -51 128 C-42.3152737 127.85508626 -33.66781423 126.01557038 -25.14453125 124.49609375 C-23.74784647 124.25050659 -22.35109115 124.00532031 -20.95426941 123.76051331 C-17.31556382 123.12170408 -13.67782875 122.47753078 -10.0402832 121.83215332 C-6.31324461 121.17190588 -2.58529403 120.51684965 1.14257812 119.86132812 C8.42927681 118.57923637 15.71495595 117.29146426 23 116 C20.85336175 113.63037044 18.95611984 112.34170014 16.01928711 111.09887695 C15.22513901 110.75875076 14.43099091 110.41862457 13.61277771 110.06819153 C12.7595845 109.71182114 11.9063913 109.35545074 11.02734375 108.98828125 C10.14849014 108.61519333 9.26963654 108.24210541 8.364151 107.85771179 C6.50879753 107.0718439 4.65193925 106.28952058 2.79370117 105.51049805 C-0.05846235 104.31419354 -2.90549204 103.10628563 -5.75195312 101.89648438 C-7.5543971 101.13472917 -9.35712209 100.37363847 -11.16015625 99.61328125 C-12.01537369 99.25083817 -12.87059113 98.88839508 -13.75172424 98.51496887 C-14.54272018 98.18429916 -15.33371613 97.85362946 -16.14868164 97.51293945 C-16.84578751 97.21998489 -17.54289337 96.92703033 -18.26112366 96.62519836 C-21.11914899 95.59761939 -21.9104132 95.95416489 -24.6875 97.375 Z " transform="translate(216,120)" style="fill: #FC7E7E;"/></svg>